<svg xmlns="http://www.w3.org/2000/svg" viewBox="0 0 428.95 505.77">
    <defs>
        <clipPath id="A">
            <path d="M0 0h428.95v505.77H0z" fill="none"/>
        </clipPath>
    </defs>
    <g clip-path="url(#A)">
        <g clip-path="url(#A)">
            <path d="M209.65 477.15c-1.8-.72-44.47-18.15-91.65-61.15C74.48 376.3 18.86 306.46.9 199l-.9-5.34 3.45-4.16c.77-.93 19.25-22.95 54.46-45A295.92 295.92 0 0 1 214 99.66h1.33C341 99.66 421.6 183.45 425 187l4 4.2-.9 5.72c-17 107.7-72.92 178.07-116.84 218.17-47.63 43.46-90.95 61.3-92.77 62l-4.42 1.8z" fill="#fff"/>
            <path d="M416.4 195.12s-79.56-84.24-202.33-83.66C83.07 112.08 12.53 197 12.53 197c33.7 201.62 201.53 269.17 201.53 269.17S384.6 397 416.4 195.08" fill="#080e19"/>
            <path d="M370.88 332c.84-6 4.27-36-3.53-77.1l8.9 3.2s-7.1-66.13-17.55-84.32c14.44-110-14.67-152.92-15.1-153.64L332.8 1.82l-9.75 20c-5.27 13.54-36.4 38-53.14 51.15l-6.15 4.84a89 89 0 0 0-10.22 9.5l-1.86-6.8-12.3 7.18 5.3-22.86-23.34 14.25a94.35 94.35 0 0 0-14 10.57L191.45 94c-2.94.8-5.76 1.68-8.53 2.56a84.81 84.81 0 0 0-17.51-18.74L159.28 73c-16.74-13.14-47.9-37.6-53.16-51.16L97.62 0 85.55 20.1c-1.2 2-28.78 49.45-15.1 153.64-3 8.26-17.73 84.32-17.73 84.32l6.78-1.18c-7.54 41.34-.27 112.5-.27 112.5l8.06-11.77c2 12.7 25.4 74.5 25.68 75.3l-3-54.6c7.77 33.46 49.23 88.36 50.3 89.76l-6.86-34.88A159 159 0 0 0 152.7 456c14.92 14.5 37 31.6 47.86 39.74l13.58 10 6.88-5.62c1.23-1 30.4-24.9 50.15-44.12a182.2 182.2 0 0 0 19.6-22.69l-1.8 32c1-1.4 37.13-53.6 44.9-87.05l-.3 45.83c.32-.9 21.9-56.38 23.7-71.7l13.8 22.37z" fill="#fff"/>
            <g fill="#154780">
                <path d="M293.06 149.72c-1-3 37.52 52.7 37.52 52.7l6.08 22.33 7.43 51.68s9.8 36.53-32.78 83.17-58.8 60.83-58.8 60.83l-39.16 49.68 4.7-293z"/>
                <path d="M126.4 149.72c1-3-37.5 52.7-37.5 52.7l-6.08 22.33-7.44 51.68s6.16 29.43 28.1 68c31.24 54.88 63.5 76 63.5 76l48 49.68 17.57-306.86z"/>
            </g>
            <g fill="#0091d1">
                <path d="M217.4 347.42l-13.18 23.32a31.31 31.31 0 0 1-28.84-19.87c-8.68-20.7-3.6-45-3.6-45s-23.3 1-30.4 13.18c0 0-7.1-34.8-1-44.95 0 0-13.18 6.43-21.3 16.57 0 0-8.1-23.32 0-39.55 0 0 8.06-27-4.08-38.82a341.56 341.56 0 0 1 42.6 19.53c22.3 12.2 36.12 40.8 36.12 40.8s12.25-5.7 11.9-17.23c0 0-5.07 5.65-8.76 4a175.92 175.92 0 0 0-11-33.91c-9-19.74-22.32-39.62-22.14-46.88l49 20.48 3.3 72.3z"/>
                <path d="M213 347.42l13.18 23.32A31.3 31.3 0 0 0 255 350.87c8.68-20.7 3.6-45 3.6-45s23.32 1 30.42 13.18c0 0 7.1-34.8 1-44.95 0 0 13.18 6.43 21.3 16.57 0 0 8.1-23.32 0-39.55 0 0-8.06-27 4.08-38.82a341.56 341.56 0 0 0-42.6 19.53c-22.32 12.17-37.5 40.77-37.5 40.77s-10.88-5.7-10.52-17.23c0 0 5.07 5.65 8.76 4a176.3 176.3 0 0 1 11-33.91c9-19.74 22.33-39.62 22.14-46.88l-49 20.48-3.38 72.32z"/>
            </g>
            <g fill="#fff">
                <path d="M235.3 272.6s15.35 2.84 28.87 1.82l-5.4-3.75S297 265 298.66 236.1c0 0-3.74 10.27-18.94 13.65s-32.1 5.75-32.1 5.75zm-41.62 0s-15 2.84-28.53 1.82l5.4-3.75s-38.23-5.64-39.9-34.57c0 0 3.74 10.27 19 13.65s32.1 5.75 32.1 5.75z"/>
            </g>
            <path d="M235.3 272.6s15.2-7.1 21.3-12.67a38.65 38.65 0 0 0 21.8-1c11.66-4.05 18.75-13.18 20.27-22.8a14.39 14.39 0 0 1-7.12 3.31 22.42 22.42 0 0 1 5.6-12.94c10.14-11.15 18.25-14.2 18.25-14.2l2-11.66s-20.78 2-43.6 17.23c-17.06 11.37-26.8 27.36-38.5 54.73" fill="#080e19"/>
            <path d="M284.47 225.46a41.89 41.89 0 0 0-11.68 6.35 10.19 10.19 0 0 0-4.88-1.28c-5.7 0-14.87 12.2-14.87 17.9 0 0 5.75 5.57 13.43 5.07 11.9-.8 12.17-10.8 12.17-16.48 0 0 2.88-6.1 5.83-11.57" fill="#fff"/>
            <g fill="#00a8e1">
                <path d="M275.68 238.9a8.7 8.7 0 0 1-14.852 6.152 8.7 8.7 0 0 1 6.152-14.852 8.69 8.69 0 0 1 8.7 8.7"/>
                <path d="M273.66 236.52a3 3 0 1 1-6 0 3 3 0 1 1 6 0"/>
            </g>
            <g fill="#080e19">
                <path d="M249.15 258.07a454 454 0 0 1 41.57-34.13l-19.6 1.35s-19.6 6.08-22 32.78M214 313.43c-16.85 0-32.87 6.9-36.5 16.22-3.38 8.66 2.52 24.35 12.68 35 11.15 11.66 38.52 9.64 47.65 0 10.1-10.67 16.05-26.3 12.67-35-3.63-9.3-19.65-16.22-36.5-16.22"/>
            </g>
            <path d="M194.2 330.66h42.58s-24.33-14.2-42.58 0" fill="#fff"/>
            <g fill="#080e19">
                <path d="M268.52 273.12s31.2-7.9 42.24-24.2c0 0 .45 33-42.24 24.2m-106.8 0s-31.2-7.9-42.23-24.2c0 0-.45 33 42.23 24.2m22.86 34.73s25.35-38.53 56.78-3c0 0-28.4-9.13-56.78 3m27.88 92.8c-16.73 0-23.25-5.48-23.25-5.48-1.6 3.2 1.27 12.65 8.37 17.4 9 6.06 23.75 4.8 31.45 0 7.24-4.5 10-14.47 8.37-17.4 0 0-9.73 5.48-24.94 5.48M193.68 272.6s-15.2-7.1-21.3-12.67a38.65 38.65 0 0 1-21.8-1c-11.66-4.05-18.76-13.18-20.28-22.8a14.45 14.45 0 0 0 7.13 3.31 22.39 22.39 0 0 0-5.61-12.94c-10.13-11.15-18.25-14.2-18.25-14.2l-2-11.66s20.78 2 43.6 17.23c17.08 11.4 26.87 27.38 38.53 54.75"/>
            </g>
            <path d="M144.5 225.46a42 42 0 0 1 11.68 6.35 10.16 10.16 0 0 1 4.88-1.28c5.7 0 14.87 12.2 14.87 17.9 0 0-5.75 5.57-13.44 5.07-11.9-.8-12.16-10.8-12.16-16.48 0 0-2.88-6.1-5.83-11.57" fill="#fff"/>
            <g fill="#00a8e1">
                <path d="M153.3 238.9a8.71 8.71 0 0 0 14.865 6.172A8.71 8.71 0 0 0 162 230.19a8.7 8.7 0 0 0-8.71 8.7"/>
                <path d="M155.32 236.52a3 3 0 1 0 6 0 3 3 0 1 0-6 0"/>
            </g>
            <g fill="#080e19">
                <path d="M179.82 258.07a452.82 452.82 0 0 0-41.56-34.13l19.6 1.35s19.6 6.08 22 32.78M245.4 140.6s-3-30.4 26.36-53.73C291.16 71.5 327.52 44.3 334.62 26c0 0 27.37 45.62 13.18 149 0 0 11.15 28.38 12.17 56.77a145.51 145.51 0 0 0-26.36-18.25s-37.18-59.8-88.2-73"/>
                <path d="M316.38 157.8c-19.26-21.3-53.06-17.88-88.54-10.78l-13.35-12.87-20.5 14.22c-35.48-7.1-62.18-11.86-81.44 9.43s-14.2 44.6-14.2 44.6c9.13-2 31.43 3 31.43 3-13.18-9.12-8.1-30.42-8.1-30.42 5.07 18.25 42.58 28.9 42.58 28.9-9.63-15.2-2-25.35-2-25.35s9.88 17 31.43 32.95c7.14 5.28 20.6 59.85 20.6 59.85 3.7-6.5 13.8-54.57 21-59.85 21.54-15.92 31.43-32.95 31.43-32.95s7.6 10.14-2 25.35c0 0 37.52-10.65 42.6-28.9 0 0 5.07 21.3-8.1 30.42 0 0 22.3-5.07 31.43-3 0 0 5.06-23.32-14.2-44.6"/>
            </g>
            <path d="M282.25 101.24s41.9-17.13 48.66-46.32c0 0 5.24 26.17-15.54 45 0 0 7 2.14 12.42.24 0 0-3.64 15.86-15.8 20a26.85 26.85 0 0 0 12.5 0l-6.6 9s14.2 16.18 19.77 34.26c0 0-9.63-23.8-47.14-45.2 0 0 11.66-2.38 18.25-8.1 0 0-19.6-2.06-26.53-8.88" fill="#154780"/>
            <path d="M156.2 142.62l23-31.24a70.49 70.49 0 0 0-20-24.52C139.75 71.48 103.38 44.28 96.3 26c0 0-27.38 45.62-13.18 149 0 0-11.16 28.38-12.17 56.77a145.07 145.07 0 0 1 26.36-18.18c0 0 7.86-57.8 58.9-71" fill="#080e19"/>
            <path d="M148.67 101.24S106.76 84.1 100 54.92c0 0-5.24 26.17 15.55 45 0 0-7 2.14-12.42.24 0 0 3.63 15.86 15.8 20a26.89 26.89 0 0 1-12.51 0l6.6 9s-14.2 16.18-19.77 34.26c0 0 9.64-23.8 47.15-45.2 0 0-11.66-2.38-18.25-8.1 0 0 19.6-2.06 26.53-8.88" fill="#154780"/>
            <g fill="#080e19">
                <path d="M157.54 153.78l-44.94 4s19.26-35.12 82.8-52.7c0 0-8.78 14.53-8.78 29.4 0 0 18.25-31.43 41.57-45.62 0 0-8.45 36.5-1.7 48.66 0 0 2.7-30.07 18.92-39.54l6.76 24.67s41.9 0 68.94 40.56zm157.86 58.5s24.65 1.6 27.35 84.42l17.52 34.47s12.9-81.08-39.15-167.93zm-201.82 0s-24.64 1.6-27.34 84.42l-17.52 34.47s-12.9-81.08 39.15-167.93zm99.12 160.35c-19.43 0-36-9.07-42.26-21.76a29.53 29.53 0 0 0-.09 2.31c0 20.33 19 36.82 42.35 36.82s42.36-16.5 42.36-36.82c0-.78 0-1.54-.1-2.3-6.28 12.7-22.83 21.76-42.27 21.76"/>
                <path d="M360.26 331.17s-.2-41.23-13.7-54.75c0 0 1.35 13.52-1.35 20.28 0 0-10.82-8.1-23-12.17 0 0 9.8 9.12 8.44 29.4a150.43 150.43 0 0 0-24.33-7.09c0 0 7.77 30.75 1 49.67 0 0-13.52-13.85-28.4-17.9 0 0 6.53 31.3-12 57-17.28 24-54.16 44.1-54.16 44.1s-36.9-20.1-54.17-44.1c-18.5-25.7-12-57-12-57-14.86 4.06-28.38 17.9-28.38 17.9-6.76-18.92 1-49.67 1-49.67A150.43 150.43 0 0 0 95 313.93c-1.35-20.28 8.45-29.4 8.45-29.4-12.17 4.06-23 12.17-23 12.17-2.7-6.76-1.36-20.28-1.36-20.28-13.5 13.52-10.36 54.75-10.36 54.75 5.4-9.46 14.42-19.6 14.42-19.6-12.17 27 1.35 64.88 1.35 64.88 1.35-12.16 14.87-23 14.87-23 0 40.56 29.74 79.76 29.74 79.76-6.76-25.7-2.7-38.2-2.7-38.2s10.92 29.13 35.2 52.75c19.6 19.1 53 43.46 53 43.46s29.8-24.37 49.4-43.46c24.3-23.6 37.24-52.77 37.24-52.77s2 12.5-4.73 38.2c0 0 29.74-39.2 29.74-79.76 0 0 13.52 10.82 14.87 23 0 0 13.52-37.85 1.35-64.88 0 0 12.36 10.14 17.77 19.6"/>
                <path d="M240.68 443.74l-27.86-4.06s37.32-18.25 44.76-50c0 0 2.7 31.77-16.9 54.08"/>
                <path d="M185.23 443.74l27.86-4.06s-37.32-18.25-44.76-50c0 0-2.7 31.77 16.9 54.08"/>
            </g>
            <g fill="#0091d1">
                <path d="M291.45 118h1.1c23.66-1.35 27.7-12.84 27.7-12.84-8.1 1.35-19.6-6.08-19.6-6.08 18.78-10.5 27.06-33.3 29.46-41.27-8.7 27.45-47.88 43.48-47.88 43.48 6.93 6.82 26.53 8.88 26.53 8.88-5.5 4.75-14.47 7.2-17.33 7.88M139.1 118H138c-23.66-1.35-27.7-12.84-27.7-12.84 8.1 1.35 19.6-6.08 19.6-6.08-18.78-10.5-27.06-33.3-29.46-41.27 8.7 27.45 47.88 43.48 47.88 43.48-6.93 6.82-26.53 8.88-26.53 8.88 5.5 4.75 14.47 7.2 17.33 7.88M330.9 54.92l-.65 2.4.65-2.4"/>
            </g>
        </g>
    </g>
</svg>
